<svg width="24" height="25" viewBox="0 0 24 25" fill="none" xmlns="http://www.w3.org/2000/svg">
<g clip-path="url(#clip0_647_365)">
<path d="M21 20.6221V18.9721H6.9L7.8 17.3221L21.6 15.9721L24 6.97211H5.55L4.5 2.47211H0V3.97211H3.3L6.45 16.5721L4.5 20.4721V22.7221C4.5 23.9221 5.55 24.9721 6.75 24.9721C7.95 24.9721 9 23.9221 9 22.7221C9 21.5221 7.95 20.4721 6.75 20.4721H18V22.7221C18 23.9221 19.05 24.9721 20.25 24.9721C21.45 24.9721 22.5 23.9221 22.5 22.7221C22.5 21.6721 21.9 20.9221 21 20.6221ZM6 8.47211H22.05L20.4 14.4721L7.8 15.8221L6 8.47211Z" fill="white"/>
</g>
<defs>
<clipPath id="clip0_647_365">
<rect width="24" height="24" fill="white" transform="translate(0 0.972107)"/>
</clipPath>
</defs>
</svg>
