<svg width="0" height="0" class="svg-hidden">
<symbol viewBox="0 0 24 24" fill="none" xmlns="http://www.w3.org/2000/svg" id="hearth">
<path d="M11.0821 2.86152C9.8664 1.64044 8.2154 0.95197 6.49208 0.947471C4.76875 0.942972 3.11418 1.62281 1.89211 2.83752C0.67703 4.05923 -0.00301348 5.71331 0.00148704 7.43611C0.00598756 9.15892 0.694664 10.8094 1.91611 12.0248L11.3301 21.4379C11.5176 21.6254 11.7719 21.7306 12.0371 21.7306C12.3023 21.7306 12.5566 21.6254 12.7441 21.4379L22.1101 12.0807C23.3246 10.8591 24.0042 9.20548 23.9997 7.48316C23.9952 5.76085 23.3069 4.11077 22.0861 2.89551C21.4839 2.28909 20.768 1.80736 19.9794 1.47789C19.1907 1.14842 18.3448 0.977687 17.4901 0.975458C16.6353 0.97323 15.7886 1.13955 14.9982 1.4649C14.2079 1.79025 13.4894 2.26825 12.8841 2.87151L11.9901 3.76725L11.0821 2.86152ZM20.6921 10.6692L12.0401 19.3166L3.33011 10.6112C2.48421 9.77087 2.00655 8.62926 2.00205 7.43711C1.99755 6.24496 2.46658 5.09977 3.30611 4.2531C4.15259 3.41269 5.29825 2.94269 6.49125 2.94644C7.68424 2.95019 8.82693 3.42737 9.66811 4.27309L11.2881 5.89261C11.3823 5.98679 11.4944 6.06121 11.6177 6.11149C11.7411 6.16178 11.8733 6.18691 12.0065 6.18542C12.1397 6.18393 12.2713 6.15585 12.3935 6.10282C12.5157 6.04979 12.626 5.97288 12.7181 5.87661L14.2981 4.28509C14.7177 3.86772 15.2155 3.5372 15.7631 3.31246C16.3106 3.08773 16.8972 2.9732 17.4891 2.97543C18.081 2.97765 18.6666 3.0966 19.2125 3.32545C19.7584 3.5543 20.2537 3.88856 20.6701 4.30908C21.5163 5.14974 21.994 6.29194 21.9982 7.48457C22.0023 8.67721 21.5325 9.82268 20.6921 10.6692Z" fill="currentColor"/>
</symbol>
<symbol viewBox="-1 0 22 21" xmlns="http://www.w3.org/2000/svg" id="fillHearth" >
<path d="M8.31146 1.92194C7.39968 1.00586 6.16143 0.489354 4.86894 0.485979C3.57644 0.482603 2.33551 0.992636 1.41896 1.90394C0.507651 2.8205 -0.00238218 4.06143 0.00099321 5.35392C0.0043686 6.64641 0.520876 7.88467 1.43696 8.79644L8.49746 15.8584C8.63811 15.999 8.82884 16.078 9.02771 16.078C9.22658 16.078 9.41731 15.999 9.55796 15.8584L16.5825 8.83844C17.4933 7.92196 18.0031 6.68134 17.9997 5.38922C17.9963 4.09709 17.4801 2.85916 16.5645 1.94744C16.1128 1.4925 15.5759 1.13109 14.9844 0.883913C14.3929 0.636737 13.7585 0.508647 13.1174 0.506975C12.4764 0.505303 11.8413 0.630082 11.2485 0.874169C10.6558 1.11826 10.117 1.47686 9.66296 1.92944L8.99246 2.60144L8.31146 1.92194Z"/>
</symbol>
</svg>