<svg width="0" height="0" class="svg-hidden">
<symbol viewBox="0 0 27 27" fill="none" xmlns="http://www.w3.org/2000/svg" id="hearth">
<path d="M11.0821 2.86152C9.8664 1.64044 8.2154 0.95197 6.49208 0.947471C4.76875 0.942972 3.11418 1.62281 1.89211 2.83752C0.67703 4.05923 -0.00301348 5.71331 0.00148704 7.43611C0.00598756 9.15892 0.694664 10.8094 1.91611 12.0248L11.3301 21.4379C11.5176 21.6254 11.7719 21.7306 12.0371 21.7306C12.3023 21.7306 12.5566 21.6254 12.7441 21.4379L22.1101 12.0807C23.3246 10.8591 24.0042 9.20548 23.9997 7.48316C23.9952 5.76085 23.3069 4.11077 22.0861 2.89551C21.4839 2.28909 20.768 1.80736 19.9794 1.47789C19.1907 1.14842 18.3448 0.977687 17.4901 0.975458C16.6353 0.97323 15.7886 1.13955 14.9982 1.4649C14.2079 1.79025 13.4894 2.26825 12.8841 2.87151L11.9901 3.76725L11.0821 2.86152ZM20.6921 10.6692L12.0401 19.3166L3.33011 10.6112C2.48421 9.77087 2.00655 8.62926 2.00205 7.43711C1.99755 6.24496 2.46658 5.09977 3.30611 4.2531C4.15259 3.41269 5.29825 2.94269 6.49125 2.94644C7.68424 2.95019 8.82693 3.42737 9.66811 4.27309L11.2881 5.89261C11.3823 5.98679 11.4944 6.06121 11.6177 6.11149C11.7411 6.16178 11.8733 6.18691 12.0065 6.18542C12.1397 6.18393 12.2713 6.15585 12.3935 6.10282C12.5157 6.04979 12.626 5.97288 12.7181 5.87661L14.2981 4.28509C14.7177 3.86772 15.2155 3.5372 15.7631 3.31246C16.3106 3.08773 16.8972 2.9732 17.4891 2.97543C18.081 2.97765 18.6666 3.0966 19.2125 3.32545C19.7584 3.5543 20.2537 3.88856 20.6701 4.30908C21.5163 5.14974 21.994 6.29194 21.9982 7.48457C22.0023 8.67721 21.5325 9.82268 20.6921 10.6692Z"/>
</symbol>
<symbol viewBox="-1 0 22 21" xmlns="http://www.w3.org/2000/svg" id="fillHearth">
<path d="M8.31146 1.92194C7.39968 1.00586 6.16143 0.489354 4.86894 0.485979C3.57644 0.482603 2.33551 0.992636 1.41896 1.90394C0.507651 2.8205 -0.00238218 4.06143 0.00099321 5.35392C0.0043686 6.64641 0.520876 7.88467 1.43696 8.79644L8.49746 15.8584C8.63811 15.999 8.82884 16.078 9.02771 16.078C9.22658 16.078 9.41731 15.999 9.55796 15.8584L16.5825 8.83844C17.4933 7.92196 18.0031 6.68134 17.9997 5.38922C17.9963 4.09709 17.4801 2.85916 16.5645 1.94744C16.1128 1.4925 15.5759 1.13109 14.9844 0.883913C14.3929 0.636737 13.7585 0.508647 13.1174 0.506975C12.4764 0.505303 11.8413 0.630082 11.2485 0.874169C10.6558 1.11826 10.117 1.47686 9.66296 1.92944L8.99246 2.60144L8.31146 1.92194Z"/>
</symbol>
<symbol viewBox="0 0 25 25" xmlns="http://www.w3.org/2000/svg" id="cart">
<path d="M21 19.65V18H6.9L7.8 16.35L21.6 15L24 6H5.55L4.5 1.5H0V3H3.3L6.45 15.6L4.5 19.5V21.75C4.5 22.95 5.55 24 6.75 24C7.95 24 9 22.95 9 21.75C9 20.55 7.95 19.5 6.75 19.5H18V21.75C18 22.95 19.05 24 20.25 24C21.45 24 22.5 22.95 22.5 21.75C22.5 20.7 21.9 19.95 21 19.65ZM6 7.5H22.05L20.4 13.5L7.8 14.85L6 7.5Z"/>
</symbol>
<symbol viewBox="0 0 24 24" xmlns="http://www.w3.org/2000/svg" id="profile">
 <path d="M19.5 3.1875H4.5C4.1519 3.1875 3.81806 3.32578 3.57192 3.57192C3.32578 3.81806 3.1875 4.1519 3.1875 4.5V19.5C3.1875 19.8481 3.32578 20.1819 3.57192 20.4281C3.81806 20.6742 4.1519 20.8125 4.5 20.8125H19.5C19.8481 20.8125 20.1819 20.6742 20.4281 20.4281C20.6742 20.1819 20.8125 19.8481 20.8125 19.5V4.5C20.8125 4.1519 20.6742 3.81806 20.4281 3.57192C20.1819 3.32578 19.8481 3.1875 19.5 3.1875ZM8.8125 11.25C8.8125 10.6196 8.99944 10.0033 9.34969 9.47912C9.69994 8.95494 10.1978 8.54639 10.7802 8.30513C11.3626 8.06388 12.0035 8.00076 12.6219 8.12375C13.2402 8.24674 13.8081 8.55032 14.2539 8.9961C14.6997 9.44188 15.0033 10.0098 15.1263 10.6281C15.2492 11.2465 15.1861 11.8874 14.9449 12.4698C14.7036 13.0522 14.2951 13.5501 13.7709 13.9003C13.2467 14.2506 12.6304 14.4375 12 14.4375C11.1546 14.4375 10.3439 14.1017 9.7461 13.5039C9.14832 12.9061 8.8125 12.0954 8.8125 11.25ZM6.16594 19.6875C6.54957 18.6084 7.22333 17.656 8.11312 16.935C9.2137 16.0464 10.5855 15.5618 12 15.5618C13.4145 15.5618 14.7863 16.0464 15.8869 16.935C16.7767 17.656 17.4504 18.6084 17.8341 19.6875H6.16594ZM19.6875 19.5C19.6875 19.5497 19.6677 19.5974 19.6326 19.6326C19.5974 19.6677 19.5497 19.6875 19.5 19.6875H19.0153C18.6871 18.5684 18.0955 17.5441 17.2901 16.7007C16.4846 15.8572 15.4888 15.2191 14.3859 14.8397C15.1575 14.3273 15.7435 13.58 16.0574 12.7086C16.3712 11.8372 16.3962 10.8879 16.1285 10.0012C15.8609 9.11452 15.3149 8.33755 14.5714 7.78529C13.8278 7.23303 12.9262 6.93484 12 6.93484C11.0738 6.93484 10.1722 7.23303 9.42864 7.78529C8.68509 8.33755 8.13909 9.11452 7.87146 10.0012C7.60383 10.8879 7.62878 11.8372 7.94262 12.7086C8.25647 13.58 8.84253 14.3273 9.61406 14.8397C8.51122 15.2191 7.51536 15.8572 6.70991 16.7007C5.90445 17.5441 5.31286 18.5684 4.98469 19.6875H4.5C4.45027 19.6875 4.40258 19.6677 4.36742 19.6326C4.33225 19.5974 4.3125 19.5497 4.3125 19.5V4.5C4.3125 4.45027 4.33225 4.40258 4.36742 4.36742C4.40258 4.33225 4.45027 4.3125 4.5 4.3125H19.5C19.5497 4.3125 19.5974 4.33225 19.6326 4.36742C19.6677 4.40258 19.6875 4.45027 19.6875 4.5V19.5Z"/>
</symbol>
</svg>